<svg xmlns="http://www.w3.org/2000/svg" width="512" height="512" viewBox="-50 -50 460 460" preserveAspectRatio="xMidYMid meet">
    <rect x="-50" y="-50" width="460" height="460" rx="60" fill="#ffffff"/>

    <g fill="#000000" fill-opacity="1">
        <g transform="translate(2.528032, 269.335328)">
            <path d="M 95.5 49.828125 L 28.109375 49.828125 L 28.109375 -211.453125 L 95.5 -211.453125 L 95.5 -203.46875 L 66.75 -203.46875 C 61.644531 -203.46875 57.972656 -202.347656 55.734375 -200.109375 C 53.492188 -197.867188 52.375 -194.300781 52.375 -189.40625 L 52.375 25.234375 C 52.375 36.304688 57.59375 41.84375 68.03125 41.84375 L 95.5 41.84375 Z M 95.5 49.828125 "></path>
        </g>
        <g transform="translate(108.905147, 269.335328)"></g>
        <g transform="translate(188.758064, 269.335328)"></g>
        <g transform="translate(268.622895, 269.335328)">
            <path d="M 78.25 49.828125 L 10.859375 49.828125 L 10.859375 41.84375 L 39.609375 41.84375 C 49.191406 41.84375 53.984375 37.15625 53.984375 27.78125 L 53.984375 -186.859375 C 53.984375 -197.929688 48.765625 -203.46875 38.328125 -203.46875 L 10.859375 -203.46875 L 10.859375 -211.453125 L 78.25 -211.453125 Z M 78.25 49.828125 "></path>
        </g>
        <g transform="translate(78.405021, 184.988196)">
            <path d="M 104.546875 -49.546875 C 100.222656 -49.148438 97.421875 -48.238281 96.140625 -46.8125 C 94.859375 -45.382812 94.21875 -42.507812 94.21875 -38.1875 L 94.21875 -8.25 C 91.269531 -5.695312 85.9375 -3.335938 78.21875 -1.171875 C 70.507812 0.984375 63.507812 2.0625 57.21875 2.0625 C 40.601562 2.0625 27.179688 -3.195312 16.953125 -13.71875 C 8.796875 -22.269531 4.71875 -33.671875 4.71875 -47.921875 C 4.71875 -62.960938 9.457031 -75.347656 18.9375 -85.078125 C 28.425781 -94.804688 40.546875 -99.671875 55.296875 -99.671875 C 61.878906 -99.671875 68.5625 -98.539062 75.34375 -96.28125 C 77.90625 -95.300781 80.070312 -94.8125 81.84375 -94.8125 C 83.414062 -94.8125 84.789062 -95.273438 85.96875 -96.203125 C 87.144531 -97.140625 87.976562 -98.296875 88.46875 -99.671875 L 91.71875 -99.671875 L 92.890625 -68.5625 L 89.5 -68.5625 C 86.257812 -76.53125 82.769531 -82.234375 79.03125 -85.671875 C 73.132812 -91.078125 66.054688 -93.78125 57.796875 -93.78125 C 47.378906 -93.78125 38.828125 -90.046875 32.140625 -82.578125 C 28.898438 -78.941406 26.320312 -74 24.40625 -67.75 C 22.488281 -61.507812 21.53125 -54.945312 21.53125 -48.0625 C 21.53125 -34.40625 24.992188 -23.617188 31.921875 -15.703125 C 38.847656 -7.785156 48.3125 -3.828125 60.3125 -3.828125 C 65.613281 -3.828125 70.207031 -4.6875 74.09375 -6.40625 C 77.976562 -8.132812 79.921875 -10.175781 79.921875 -12.53125 L 79.921875 -36.421875 C 79.921875 -42.515625 78.890625 -46.203125 76.828125 -47.484375 C 75.253906 -48.460938 71.957031 -49.148438 66.9375 -49.546875 L 66.9375 -52.203125 L 104.546875 -52.203125 Z M 104.546875 -49.546875 "></path>
        </g>
        <g transform="translate(204.196045, 290.947422)">
            <path d="M 99.203125 0 L 74.96875 0 L 39.140625 -46.359375 L 30.703125 -46.0625 L 30.703125 -16.40625 C 30.703125 -10.988281 31.503906 -7.476562 33.109375 -5.875 C 34.722656 -4.269531 38.4375 -3.265625 44.25 -2.859375 L 44.25 0 L 2.5625 0 L 2.5625 -2.859375 C 8.175781 -3.265625 11.710938 -4.34375 13.171875 -6.09375 C 14.628906 -7.851562 15.359375 -11.84375 15.359375 -18.0625 L 15.359375 -83.25 C 15.359375 -88.5625 14.628906 -91.992188 13.171875 -93.546875 C 11.710938 -95.109375 8.175781 -96.191406 2.5625 -96.796875 L 2.5625 -99.65625 L 44.109375 -99.65625 C 51.128906 -99.65625 57.550781 -98.75 63.375 -96.9375 C 69.195312 -95.132812 73.5625 -92.675781 76.46875 -89.5625 C 80.382812 -85.144531 82.34375 -79.675781 82.34375 -73.15625 C 82.34375 -65.726562 79.78125 -59.957031 74.65625 -55.84375 C 70.34375 -52.332031 63.820312 -49.722656 55.09375 -48.015625 L 86.109375 -9.9375 C 88.210938 -7.425781 90.191406 -5.664062 92.046875 -4.65625 C 93.898438 -3.65625 96.285156 -3.054688 99.203125 -2.859375 Z M 65.9375 -73.453125 C 65.9375 -80.484375 63.703125 -85.675781 59.234375 -89.03125 C 54.765625 -92.394531 47.816406 -94.078125 38.390625 -94.078125 C 35.378906 -94.078125 33.34375 -93.703125 32.28125 -92.953125 C 31.226562 -92.203125 30.703125 -90.769531 30.703125 -88.65625 L 30.703125 -51.625 C 38.035156 -51.832031 43.457031 -52.257812 46.96875 -52.90625 C 50.476562 -53.5625 53.941406 -54.84375 57.359375 -56.75 C 63.078125 -59.757812 65.9375 -65.328125 65.9375 -73.453125 Z M 65.9375 -73.453125 "></path>
        </g>
    </g>
</svg>